<svg width="20" height="20" viewBox="0 0 20 20" fill="none" xmlns="http://www.w3.org/2000/svg">
<path d="M14.4362 3.3427C12.8211 2.26644 10.8698 1.81403 8.94585 2.06977C7.02191 2.32552 5.25655 3.27197 3.97868 4.73279C2.70081 6.19361 1.99758 8.06917 2.00001 10.01C2.00244 11.9509 2.71036 13.8247 3.99189 15.2823C5.27342 16.7399 7.04114 17.682 8.96572 17.9329C10.8903 18.1838 12.8405 17.7265 14.4529 16.6462C16.0653 15.5659 17.23 13.9362 17.73 12.0609C17.8011 11.7941 17.6425 11.5201 17.3757 11.449C17.1088 11.3778 16.8349 11.5365 16.7637 11.8033C16.3262 13.4442 15.3071 14.8702 13.8963 15.8154C12.4854 16.7607 10.779 17.1608 9.095 16.9413C7.411 16.7217 5.86424 15.8974 4.7429 14.622C3.62157 13.3466 3.00213 11.707 3.00001 10.0088C2.99788 8.31053 3.61321 6.66941 4.73134 5.39119C5.84948 4.11297 7.39417 3.28483 9.07762 3.06106C10.7611 2.83728 12.4685 3.23313 13.8817 4.17487C15.055 4.95671 15.9591 6.07056 16.485 7.36464C16.4869 7.36936 16.4889 7.37404 16.4909 7.37867H13.5341C13.258 7.37867 13.0341 7.60253 13.0341 7.87867C13.0341 8.15482 13.258 8.37867 13.5341 8.37867L17.7767 8.37867C18.0529 8.37867 18.2768 8.15482 18.2767 7.87867L18.2768 3.63603C18.2768 3.35989 18.0529 3.13603 17.7767 3.13603C17.5006 3.13603 17.2767 3.35989 17.2767 3.63603V6.676C16.662 5.33018 15.6818 4.17274 14.4362 3.3427Z" fill="#3E3E40"/>
</svg>
