<svg width="20" height="20" viewBox="0 0 20 20" fill="none" xmlns="http://www.w3.org/2000/svg">
<path d="M5.56378 3.3427C7.1789 2.26644 9.1302 1.81403 11.0541 2.06977C12.9781 2.32552 14.7434 3.27197 16.0213 4.73279C17.2992 6.19361 18.0024 8.06917 18 10.01C17.9976 11.9509 17.2896 13.8247 16.0081 15.2823C14.7266 16.7399 12.9589 17.682 11.0343 17.9329C9.1097 18.1838 7.15954 17.7265 5.54712 16.6462C3.9347 15.5659 2.77 13.9362 2.27001 12.0609C2.19888 11.7941 2.35751 11.5201 2.62433 11.449C2.89116 11.3778 3.16513 11.5365 3.23627 11.8033C3.67375 13.4442 4.69286 14.8702 6.10373 15.8154C7.5146 16.7607 9.22099 17.1608 10.905 16.9413C12.589 16.7217 14.1358 15.8974 15.2571 14.622C16.3784 13.3466 16.9979 11.707 17 10.0088C17.0021 8.31053 16.3868 6.66941 15.2687 5.39119C14.1505 4.11297 12.6058 3.28483 10.9224 3.06106C9.23893 2.83728 7.53154 3.23313 6.11831 4.17487C4.94501 4.95671 4.0409 6.07056 3.51502 7.36464C3.5131 7.36936 3.51112 7.37404 3.50907 7.37867H6.46589C6.74203 7.37867 6.96589 7.60253 6.96589 7.87867C6.96589 8.15482 6.74203 8.37867 6.46589 8.37867L2.22325 8.37867C1.94711 8.37867 1.72325 8.15482 1.72325 7.87867L1.72325 3.63603C1.72325 3.35989 1.94711 3.13603 2.22325 3.13603C2.49939 3.13603 2.72325 3.35989 2.72325 3.63603V6.676C3.33803 5.33018 4.31816 4.17274 5.56378 3.3427Z" fill="#3E3E40"/>
</svg>
